<?xml version="1.0" encoding="UTF-8" standalone="no"?>
<svg
   xmlns:dc="http://purl.org/dc/elements/1.1/"
   xmlns:cc="http://creativecommons.org/ns#"
   xmlns:rdf="http://www.w3.org/1999/02/22-rdf-syntax-ns#"
   xmlns:svg="http://www.w3.org/2000/svg"
   xmlns="http://www.w3.org/2000/svg"
   id="svg23"
   version="1.1"
   stroke-miterlimit="1.414"
   stroke-linejoin="round"
   clip-rule="evenodd"
   fill-rule="evenodd"
   viewBox="0 0 240 190">
  <metadata
     id="metadata29">
    <rdf:RDF>
      <cc:Work
         rdf:about="">
        <dc:format>image/svg+xml</dc:format>
        <dc:type
           rdf:resource="http://purl.org/dc/dcmitype/StillImage" />
        <dc:title></dc:title>
      </cc:Work>
    </rdf:RDF>
  </metadata>
  <defs
     id="defs27" />
  <path
     style="fill:none"
     id="path2"
     d="M -277.66423,-0.87591241 H -37.664234 V 189.12409 H -277.66423 Z" />
  <clipPath
     id="a">
    <path
       id="path4"
       d="M0 0h240v190H0z" />
  </clipPath>
  <path
     style="fill:#ff4400;stroke-width:3.43780828"
     id="path344"
     d="M 109.58404,52.621238 C 95.186492,51.816791 82.978838,62.859032 82.17439,77.101871 c -0.03438,0.55005 -0.04126,1.096661 -0.03782,1.643272 H 4.8890214 0.4817514 v 4.40727 c 0,9.398968 4.5482205,18.471347 12.8023986,25.549797 6.951248,5.95771 16.274585,10.26873 26.563945,12.34173 v 6.72435 c 0,4.85762 3.953479,8.80766 8.811102,8.80766 h 0.72194 v 40.37019 c -8.773287,0.28877 -19.554253,1.56764 -19.554253,6.12273 0,5.38705 15.095415,6.19493 24.095598,6.19493 9.000182,0 24.099036,-0.80444 24.099036,-6.19493 0,-4.55509 -10.784404,-5.83739 -19.554253,-6.12273 v -40.37019 h 0.838824 c 4.857623,0 8.811103,-3.95004 8.811103,-8.80766 v -6.66591 c 13.713417,-2.68493 25.071937,-9.20301 32.071318,-17.77347 2.06956,0.66007 4.23537,1.06228 6.45964,1.18949 0.49848,0.0275 0.99353,0.0412 1.48513,0.0412 13.76498,0 25.14757,-10.770653 25.92452,-24.521887 0.81476,-14.311595 -10.16561,-26.608636 -24.47376,-27.416521 z M 72.266626,183.07231 c -2.980579,0.85602 -9.068938,1.79111 -17.996925,1.79111 -8.927989,0 -15.016347,-0.93166 -17.996927,-1.79111 2.98058,-0.85601 9.068938,-1.79109 17.996927,-1.79109 8.927987,0 15.019784,0.93164 17.996925,1.79109 z M 98.081127,98.911323 c -0.649746,0.90415 -1.351052,1.784227 -2.100499,2.643687 -7.085323,8.05821 -18.674174,13.91967 -32.274143,15.81735 0,0.0378 0.01036,0.0722 0.01036,0.11348 v 10.28249 c 0,2.43397 -1.973303,4.40383 -4.40727,4.40383 H 48.66268 c -2.433969,0 -4.40727,-1.96986 -4.40727,-4.40383 v -10.28249 c 0,-0.0516 0.01375,-0.0997 0.01375,-0.15126 C 21.799649,114.09272 4.8890686,100.02177 4.8890686,83.14901 c 19.3101694,0 52.9972534,0 77.6497764,0 1.148228,0 2.27583,0 3.382803,0 6.854991,0 12.871154,0 17.477812,0 -0.007,5.675822 -1.92517,11.02849 -5.318287,15.762348 z M 130.76094,79.845242 c -0.69788,12.434553 -11.35853,22.087928 -23.92371,21.365978 -1.55046,-0.086 -3.06996,-0.33347 -4.53791,-0.72194 3.53063,-5.259846 5.50393,-11.159125 5.50393,-17.340304 v -4.403833 h -4.40727 -17.928169 c -0.0069,-0.48473 -0.02062,-0.969461 0.0069,-1.45763 0.677247,-12.001389 10.615959,-21.403795 22.627659,-21.403795 0.42973,0 0.85945,0.01375 1.29605,0.03782 6.05054,0.340343 11.6026,3.018396 15.63858,7.539115 4.03256,4.51728 6.07118,10.337489 5.72396,16.384594 z" />
  <g
     transform="matrix(1.1508888,0,0,1.1508888,-20.234247,-19.350684)"
     style="fill:#ff4400;fill-opacity:0.50196078"
     id="g5024">
    <path
       d="m 110.25328,78.96793 0.53469,-9.418295 c -1.67575,0.07767 -3.27982,0.430141 -4.77934,1.003662 z"
       id="path346"
       style="fill:#ff4400;fill-opacity:0.50196078;stroke-width:2.98708987" />
    <path
       d="m 99.4908,75.263938 7.87696,5.158704 -4.24167,-8.408658 c -1.37406,0.887166 -2.60176,1.983428 -3.63529,3.249954 z"
       id="path348"
       style="fill:#ff4400;fill-opacity:0.50196078;stroke-width:2.98708987" />
    <path
       d="m 96.178117,82.594257 9.418293,0.531702 -7.885916,-5.164679 c -0.734824,1.427829 -1.266526,2.981116 -1.532377,4.632977 z"
       id="path350"
       style="fill:#ff4400;fill-opacity:0.50196078;stroke-width:2.98708987" />
    <path
       d="m 124.58833,76.679819 c -0.88717,-1.374062 -1.98343,-2.601756 -3.24995,-3.635289 l -5.1617,7.876956 z"
       id="path352"
       style="fill:#ff4400;fill-opacity:0.50196078;stroke-width:2.98708987" />
    <path
       d="m 114.01104,69.734835 -0.53469,9.418294 5.16468,-7.88293 c -1.42484,-0.737811 -2.97813,-1.269513 -4.62999,-1.535364 z"
       id="path354"
       style="fill:#ff4400;fill-opacity:0.50196078;stroke-width:2.98708987" />
    <path
       d="m 117.63438,83.807015 9.4183,0.531702 c -0.0777,-1.67277 -0.43612,-3.27385 -1.00366,-4.776356 z"
       id="path356"
       style="fill:#ff4400;fill-opacity:0.50196078;stroke-width:2.98708987" />
    <path
       d="m 119.92548,98.145047 c 1.37406,-0.884179 2.60176,-1.980441 3.63529,-3.246967 l -7.87696,-5.161691 z"
       id="path358"
       style="fill:#ff4400;fill-opacity:0.50196078;stroke-width:2.98708987" />
    <path
       d="m 112.26658,100.6094 c 1.67277,-0.0777 3.27385,-0.43313 4.77636,-1.003666 l -4.24465,-8.414633 z"
       id="path360"
       style="fill:#ff4400;fill-opacity:0.50196078;stroke-width:2.98708987" />
    <path
       d="m 125.3351,92.197751 c 0.7408,-1.427829 1.2725,-2.981116 1.53835,-4.632977 l -9.41829,-0.531702 z"
       id="path362"
       style="fill:#ff4400;fill-opacity:0.50196078;stroke-width:2.98708987" />
  </g>
  <path
     style="fill:#ff4400;fill-opacity:0.50196078;stroke-width:3.43780828"
     id="path364"
     d="m 84.323021,89.02419 c -20.726546,0 -53.887646,0 -71.331085,0 1.808288,11.56478 18.96295,23.13301 41.14369,23.13301 16.656181,0 30.046445,-5.78927 36.774236,-14.122509 0.711626,-0.883526 1.337307,-1.794546 1.901108,-2.729625 1.192919,-1.993929 2.035182,-4.101305 2.471782,-6.280876 -2.076435,0 -4.53103,0 -7.270963,0 -1.175731,0 -2.409904,0 -3.688768,0 z" />
  <path
     style="stroke-width:7.53697443;fill:#ff4400;fill-opacity:1"
     d="m 234.2103,60.086599 h -48.01807 l -0.67079,-5.268346 C 185.07676,49.896609 181.24798,40.317115 169.99528,39.292086 159.10435,38.304743 138.56609,37.34001 137.6918,37.294788 l -0.36931,7.943971 c 0.21104,0.0075 21.2392,1.002418 31.95677,1.974687 7.29579,0.663254 8.24545,7.567123 8.34343,8.464023 l 0.55774,4.40913 h -16.18188 -5.96175 v 5.961746 117.848135 5.96174 h 5.96175 72.21928 5.96175 V 183.89648 66.048345 60.086599 Z m 0,123.809881 H 161.99855 V 66.048345 h 16.93558 l 4.10765,32.461749 h -17.06371 v 81.406856 h 64.26024 V 98.517631 h -39.17719 l -4.11519,-32.469286 h 47.26437 z m -39.24503,-47.95023 c 2.08021,0.74616 3.16553,3.0374 2.42691,5.1176 l -4.5448,12.73749 c -0.74616,2.0802 -3.0374,3.17306 -5.1176,2.4269 l -12.73749,-4.54479 c -2.08774,-0.74616 -3.17307,-3.02987 -2.42691,-5.11761 l 4.53726,-12.73748 c 0.74616,-2.08021 3.0374,-3.16553 5.11761,-2.42691 z m 28.5576,-19.11377 -4.5448,12.73749 c -0.74616,2.0802 -3.0374,3.17306 -5.1176,2.41936 l -12.73749,-4.53725 c -2.08021,-0.74616 -3.17307,-3.02987 -2.41937,-5.11761 l 4.53726,-12.73749 c 0.7537,-2.08774 3.02986,-3.17306 5.11761,-2.4269 l 12.73748,4.53726 c 2.07267,0.75369 3.16553,3.04493 2.42691,5.12514 z m 1.92946,47.61107 c 0.76877,2.06513 -0.29394,4.37898 -2.36661,5.14775 l -12.69226,4.688 c -2.06513,0.77631 -4.37145,-0.29394 -5.14022,-2.35908 l -4.69553,-12.69226 c -0.76877,-2.07267 0.29394,-4.37145 2.36661,-5.14775 l 12.69226,-4.688 c 2.06513,-0.76877 4.37145,0.29394 5.14022,2.36661 z"
     id="path5150" />
</svg>
