<?xml version="1.0" encoding="UTF-8" standalone="no"?>
<svg
   xmlns:dc="http://purl.org/dc/elements/1.1/"
   xmlns:cc="http://creativecommons.org/ns#"
   xmlns:rdf="http://www.w3.org/1999/02/22-rdf-syntax-ns#"
   xmlns:svg="http://www.w3.org/2000/svg"
   xmlns="http://www.w3.org/2000/svg"
   id="svg5406"
   version="1.1"
   stroke-miterlimit="1.414"
   stroke-linejoin="round"
   clip-rule="evenodd"
   fill-rule="evenodd"
   viewBox="0 0 240 190">
  <metadata
     id="metadata5412">
    <rdf:RDF>
      <cc:Work
         rdf:about="">
        <dc:format>image/svg+xml</dc:format>
        <dc:type
           rdf:resource="http://purl.org/dc/dcmitype/StillImage" />
        <dc:title></dc:title>
      </cc:Work>
    </rdf:RDF>
  </metadata>
  <defs
     id="defs5410" />
  <path
     id="path5385"
     d="M0 0h240v190H0z"
     fill="none" />
  <clipPath
     id="a">
    <path
       id="path5387"
       d="M0 0h240v190H0z" />
  </clipPath>
  <path
     id="path5582"
     d="M 171.56304,2.246e-6 H 65.545096 C 59.181027,2.246e-6 54,5.1810296 54,11.545099 V 39.353541 H 183.10466 V 11.545099 C 183.10466,5.17755 177.93059,2.246e-6 171.56304,2.246e-6 Z M 176.81366,33.059062 H 60.297957 V 11.545099 c 0,-2.8914937 2.355646,-5.2471388 5.247139,-5.2471388 H 171.56304 c 2.8915,0 5.24714,2.3556451 5.24714,5.2471388 v 21.513963 z"
     style="fill:#ff4400;stroke-width:3.47953486;fill-opacity:1" />
  <path
     id="path5584"
     d="m 54,150.64646 v 1.56231 26.24613 C 54,184.82245 59.181027,190 65.545096,190 H 171.56304 c 6.36407,0 11.54162,-5.17755 11.54162,-11.5451 V 152.21573 150.64994 44.019597 H 54 Z M 60.297957,50.317555 H 176.81018 V 150.64646 H 60.297957 Z m 0,106.623385 H 176.81018 v 21.51744 c 0,2.88802 -2.35564,5.25062 -5.24714,5.25062 H 65.545096 c -2.894973,0 -5.247139,-2.3626 -5.247139,-5.25062 z"
     style="fill:#ff4400;stroke-width:3.47953486;fill-opacity:1" />
  <path
     id="path5586"
     d="M 94.23734,12.943872 H 69.396941 c -3.476055,0 -6.301438,2.825382 -6.301438,6.301437 v 4.899185 c 0,3.476055 2.825383,6.297958 6.301438,6.297958 H 94.23734 c 3.472576,0 6.29448,-2.821903 6.29448,-6.297958 v -4.899185 c 0,-3.476055 -2.821904,-6.301437 -6.29448,-6.301437 z m 2.098159,11.200622 c 0,1.155206 -0.939474,2.101639 -2.098159,2.101639 H 69.396941 c -1.158685,0 -2.101639,-0.942954 -2.101639,-2.101639 v -4.899185 c 0,-1.158685 0.942954,-2.098159 2.101639,-2.098159 H 94.23734 c 1.158685,0 2.098159,0.942954 2.098159,2.098159 z"
     style="fill:#ff4400;stroke-width:3.47953486;fill-opacity:0.50196081" />
  <path
     id="path5588"
     d="m 112.43183,16.795717 c -2.70012,0 -4.89571,2.195586 -4.89571,4.895705 0,2.703599 2.19559,4.899185 4.89571,4.899185 2.69664,0 4.8957,-2.195586 4.8957,-4.899185 0,-2.700119 -2.19906,-4.895705 -4.8957,-4.895705 z m 0,7.696731 c -1.54144,0 -2.80103,-1.256112 -2.80103,-2.801026 0,-1.541434 1.25611,-2.797546 2.80103,-2.797546 1.54143,0 2.80102,1.256112 2.80102,2.797546 0,1.544914 -1.25959,2.801026 -2.80102,2.801026 z"
     style="fill:#ff4400;stroke-width:3.47953486;fill-opacity:0.50196081" />
  <path
     id="path5590"
     d="m 124.77026,16.795717 c -2.69664,0 -4.89919,2.195586 -4.89919,4.895705 0,2.703599 2.19907,4.899185 4.89919,4.899185 2.70012,0 4.8957,-2.195586 4.8957,-4.899185 0.003,-2.700119 -2.19558,-4.895705 -4.8957,-4.895705 z m 0,7.696731 c -1.54144,0 -2.80103,-1.256112 -2.80103,-2.801026 0,-1.541434 1.24916,-2.797546 2.80103,-2.797546 1.53795,0 2.80102,1.256112 2.80102,2.797546 0,1.544914 -1.26307,2.801026 -2.80102,2.801026 z"
     style="fill:#ff4400;stroke-width:3.47953486;fill-opacity:0.50196081" />
  <path
     id="path5592"
     d="m 136.80945,16.795717 c -2.70012,0 -4.90267,2.195586 -4.90267,4.895705 0,2.703599 2.20255,4.899185 4.90267,4.899185 2.69664,0 4.8957,-2.195586 4.8957,-4.899185 0.003,-2.700119 -2.19558,-4.895705 -4.8957,-4.895705 z m 0,7.696731 c -1.54492,0 -2.80103,-1.256112 -2.80103,-2.801026 0,-1.541434 1.25264,-2.797546 2.80103,-2.797546 1.53795,0 2.79754,1.256112 2.79754,2.797546 0.003,1.544914 -1.25611,2.801026 -2.79754,2.801026 z"
     style="fill:#ff4400;stroke-width:3.47953486;fill-opacity:0.50196081" />
  <path
     id="path5594"
     d="m 159.31856,12.943872 c -4.82264,0 -8.74755,3.924915 -8.74755,8.74755 0,4.826115 3.92491,8.747551 8.74755,8.747551 4.82611,0 8.75451,-3.921436 8.75451,-8.747551 -0.007,-4.822635 -3.93536,-8.74755 -8.75451,-8.74755 z m 0,13.298782 c -2.50875,0 -4.54775,-2.042487 -4.54775,-4.551232 0,-2.508744 2.039,-4.547752 4.54775,-4.547752 2.5157,0 4.55471,2.039008 4.55471,4.547752 -0.007,2.508745 -2.05293,4.551232 -4.55471,4.551232 z"
     style="fill:#ff4400;stroke-width:3.47953486;fill-opacity:0.50196081" />
  <path
     id="path5596"
     d="m 164.47871,97.082503 h -3.22205 C 159.41251,75.220586 141.051,57.989929 118.72979,57.989929 c -23.549496,0 -42.704335,19.158319 -42.704335,42.707811 0,23.54949 19.154839,42.70085 42.704335,42.70085 21.71925,0 39.66669,-16.30858 42.3355,-37.31453 h 3.40994 c 0.68199,0 1.23175,-0.55673 1.23175,-1.23176 v -6.541522 c 0,-0.678509 -0.5428,-1.228275 -1.22827,-1.228275 z m -45.74892,42.436407 c -21.409582,0 -38.828133,-17.41159 -38.828133,-38.81421 0,-21.413059 17.415071,-38.82813 38.828133,-38.82813 20.1813,0 36.78912,15.494368 38.62283,35.205933 h -3.89708 C 151.63575,79.514331 136.76769,65.76669 118.72979,65.76669 c -19.266189,0 -34.941493,15.671824 -34.941493,34.94149 0,19.25922 15.675304,34.93801 34.941493,34.93801 17.42203,0 31.89341,-12.83949 34.4961,-29.54821 h 3.9284 c -2.63401,18.84516 -18.84864,33.42093 -38.4245,33.42093 z m 28.81402,-33.42441 h 3.71615 c -2.5853,15.63703 -16.16592,27.61011 -32.53017,27.61011 -18.19797,0 -32.999913,-14.80194 -32.999913,-32.99643 0,-18.19449 14.801943,-33.00339 32.999913,-33.00339 16.96621,0 30.95046,12.888197 32.76677,29.381192 h -3.95623 c -0.67851,0 -1.23175,0.553246 -1.23175,1.231756 v 6.541522 c 0.003,0.67503 0.55324,1.23524 1.23523,1.23524 z m 15.70314,-2.46699 h -14.47486 v -4.078017 h 14.47486 z"
     style="fill:#ff4400;stroke-width:3.47953486;fill-opacity:1" />
  <path
     id="path5598"
     d="M 101.4017,77.336143 C 91.057045,83.9403 89.905319,94.03791 89.863565,94.465893 c -0.06959,0.675029 0.421023,1.276989 1.096053,1.350059 0.04523,0.007 0.09047,0.007 0.132222,0.007 0.619358,0 1.155206,-0.469737 1.221317,-1.099533 0.01044,-0.09395 1.109972,-9.366908 10.417723,-15.309953 0.57065,-0.365351 0.74115,-1.127369 0.37231,-1.701493 -0.36535,-0.581082 -1.13084,-0.74462 -1.70149,-0.375789 z"
     style="fill:#ff4400;stroke-width:3.47953486;fill-opacity:0.50196081" />
</svg>
