<?xml version="1.0" encoding="UTF-8" standalone="no"?>
<svg
   xmlns:dc="http://purl.org/dc/elements/1.1/"
   xmlns:cc="http://creativecommons.org/ns#"
   xmlns:rdf="http://www.w3.org/1999/02/22-rdf-syntax-ns#"
   xmlns:svg="http://www.w3.org/2000/svg"
   xmlns="http://www.w3.org/2000/svg"
   id="svg5406"
   version="1.1"
   stroke-miterlimit="1.414"
   stroke-linejoin="round"
   clip-rule="evenodd"
   fill-rule="evenodd"
   viewBox="0 0 240 190">
  <metadata
     id="metadata5412">
    <rdf:RDF>
      <cc:Work
         rdf:about="">
        <dc:format>image/svg+xml</dc:format>
        <dc:type
           rdf:resource="http://purl.org/dc/dcmitype/StillImage" />
        <dc:title></dc:title>
      </cc:Work>
    </rdf:RDF>
  </metadata>
  <defs
     id="defs5410" />
  <path
     id="path5385"
     d="M0 0h240v190H0z"
     fill="none" />
  <clipPath
     id="a">
    <path
       id="path5387"
       d="M0 0h240v190H0z" />
  </clipPath>
  <path
     id="path6516"
     d="m 108.42896,39.331846 c 8.31322,0.959506 15.83559,-5.022414 16.7876,-13.339383 L 95.074581,22.547986 c -0.948262,8.320717 5.029909,15.835598 13.354379,16.78386 z"
     style="fill:#ff4400;stroke-width:3.74807048;fill-opacity:0.3019608" />
  <path
     id="path6518"
     d="m 126.04489,23.702392 7.11009,0.85456 0.6784,-5.629602 -8.55685,-2.218858 C 123.37251,11.195081 118.47753,6.956013 112.29696,6.2176431 103.66891,5.1831757 95.839187,11.337507 94.80472,19.961818 l 22.70206,2.717351 z"
     style="fill:#ff4400;stroke-width:3.74807048;fill-opacity:1" />
  <path
     id="path6520"
     d="m 136.39656,96.141351 c 6.36797,-2.915999 7.54861,-14.235172 -1.14316,-16.776364 h 5e-4 C 121.32232,75.290834 112.98661,65.542103 107.19209,53.034792 104.72961,40.72238 85.921793,33.657267 77.769739,47.60009 72.395006,56.794106 67.256401,66.13055 62.297704,75.553199 l 27.383403,16.131696 c 3.122143,-5.929448 6.341736,-11.802674 9.617549,-17.649664 7.518634,10.423384 17.436024,18.346805 31.247664,22.390973 h 0.007 m 8.01712,91.872706 5.82075,-0.50599"
     style="fill:#ff4400;fill-opacity:0.50196078;stroke-width:3.74807048" />
  <path
     id="path6522"
     d="m 48.010059,92.089686 32.20717,-55.119124 c 0,0 -5.067391,-4.868744 -11.795178,-7.507386 -1.484236,-6.31175 -6.06063,-11.424118 -12.038802,-13.672961 V 2.8481278 L 58.523397,2.2484365 C 52.815086,-4.8878897 40.678834,7.2446145 40.678834,7.2446145 L 50.67119,4.4448058 V 14.590833 c -0.356067,-0.01874 -0.708386,-0.05622 -1.068201,-0.05622 -10.674504,0 -19.355036,8.680531 -19.355036,19.355036 0,0.595943 0.03748,1.180642 0.08995,1.765341 -0.05622,0.580951 -0.08995,1.169398 -0.08995,1.761593 0,0.191152 0.02249,0.378555 0.02998,0.569707 -0.0075,0.191151 -0.02998,0.378555 -0.02998,0.569706 0,1.094437 0.112442,2.162637 0.288602,3.208349 -0.17616,1.045711 -0.288602,2.113912 -0.288602,3.208348 0,4.377746 1.480488,8.41067 3.939222,11.656499 -5.880722,10.153523 -12.154992,20.977951 -14.4713,25.074592 -5.610861,9.936135 22.694567,20.288306 28.294184,10.385902 z m 8.369442,-74.78525 c 4.760049,1.952744 8.496876,5.899463 10.172263,10.794443 -2.218858,-4.014184 -5.835746,-7.125082 -10.172263,-8.759241 z m 0,4.677592 c 3.159623,1.30058 5.858234,3.478209 7.810979,6.229293 C 62.387658,27.84401 60.517371,27.716576 58.639587,27.922719 57.912462,27.53292 57.1591,27.199342 56.379501,26.906992 Z M 37.61666,50.714736 c -2.23385,-2.02021 -3.965459,-4.591386 -4.966193,-7.499889 1.386786,2.507459 3.335782,4.651356 5.644594,6.326743 -0.224885,0.389799 -0.453517,0.779599 -0.678401,1.173146 z M 50.67119,31.187289 c -1.829059,1.424267 -3.590652,3.358271 -5.232307,5.929447 -1.236863,2.192622 -3.609392,6.311751 -6.446681,11.217975 -2.979716,-2.200117 -5.258543,-5.303519 -6.431689,-8.897919 2.342544,-7.181303 9.092819,-12.387373 17.042476,-12.387373 0.359815,0 0.715882,0.02249 1.068201,0.04498 z M 49.602989,15.962626 c 0.359815,0 0.715882,0.02249 1.068201,0.04123 v 2.1364 c -0.356067,-0.01874 -0.704638,-0.07496 -1.068201,-0.07496 -7.289997,0 -13.65422,4.05916 -16.948774,10.029837 2.413757,-7.042625 9.089071,-12.132505 16.948774,-12.132505 z m 0,4.666348 c 0.359815,0 0.712134,0.02998 1.068201,0.05247 v 5.022415 c -0.356067,-0.01874 -0.704638,-0.07871 -1.068201,-0.07871 -7.844711,0 -14.598734,4.696333 -17.634671,11.424119 -0.04873,-0.273609 -0.08995,-0.547218 -0.123687,-0.820827 1.14691,-8.785478 8.661791,-15.59947 17.758358,-15.59947 z M 31.720945,45.94719 c 1.075696,2.593665 2.702359,4.902477 4.730065,6.784008 -0.487249,0.839568 -0.981994,1.694128 -1.480488,2.556184 -1.885279,-2.672374 -3.062173,-5.876974 -3.249577,-9.340192 z"
     style="fill:#ff4400;stroke-width:3.74807048;fill-opacity:1" />
  <path
     id="path6524"
     d="m 113.02784,182.41819 c 0,0 -2.18513,-0.65217 -4.9512,-2.01272 l -1.53296,2.81855 -1.60793,-0.82083 1.54796,-2.84103 c -0.47976,-0.25862 -0.96326,-0.54722 -1.44676,-0.85082 l -1.39053,2.55619 -1.60418,-0.81333 1.49174,-2.74734 c -0.43478,-0.31484 -0.86581,-0.65216 -1.28934,-1.00073 l -1.25186,2.31256 -1.611666,-0.82458 0.457264,-0.83582 c 1.461752,-1.04571 2.601162,-2.64239 3.039682,-4.92122 0.51724,-2.72859 0.89204,-4.65885 1.14691,-6.0119 0.3973,-2.08768 0.53223,-2.77357 0.53223,-2.77357 0.25862,-1.34931 0.62593,-3.28706 1.14691,-6.01191 h -0.0113 c 2.16264,-8.5531 4.32153,-17.10244 6.48791,-25.66304 0.24363,-0.967 0.32983,-1.86654 0.3036,-2.71735 0.65591,-2.26383 0.2886,-4.83876 -1.70537,-7.34247 -7.17006,-9.01036 -15.352101,-16.82884 -24.718529,-23.294257 0.625928,-1.206878 1.259352,-2.421253 1.892776,-3.63188 L 60.573592,78.855249 c -0.745866,1.431763 -1.499228,2.859778 -2.237598,4.295289 -0.678401,1.319321 -1.143162,2.627398 -1.458,3.912986 -2.781068,6.214301 -14.002791,30.528036 -29.935839,55.014176 l -0.550966,-0.35606 c -1.135666,1.7466 -6.990152,10.95561 -8.227015,12.78841 -0.08246,0.13493 -0.127434,0.26986 -0.206144,0.40479 l -0.412288,0.64842 -6.544131,9.34394 0.02624,0.008 c -0.01499,0.0187 -0.05622,0.045 -0.05622,0.045 L 9.761,166.9424 c 0,0 0.1349305,0.37481 0.44602,0.56221 l 9.936135,6.22555 12.833394,8.03586 5.344748,3.35078 c 0.31109,0.20239 0.629676,0.26236 0.704637,0.14992 l 1.086941,-1.7466 c 0.01499,-0.0187 0.0075,-0.0487 0.0037,-0.0787 l 0.02999,0.03 c 0,0 2.736091,-3.1034 0.123686,-5.70081 0,0 -1.795326,-1.40553 -3.871757,-3.67686 l -2.458734,2.06519 -1.199383,-1.34556 2.477475,-2.07643 c -0.348571,-0.41978 -0.693393,-0.85831 -1.03072,-1.32307 l -2.230101,1.86654 -1.195635,-1.34556 2.395017,-2.00896 c -0.292349,-0.44977 -0.573455,-0.92203 -0.839568,-1.40178 l -2.008966,1.69787 -1.20313,-1.3493 0.730874,-0.61468 c 1.742852,-0.43478 3.384507,-1.50298 4.625119,-3.47447 1.480487,-2.34629 2.529947,-4.01418 3.264569,-5.18358 1.131917,-1.79532 1.510472,-2.39501 1.506724,-2.38752 0.02624,-0.045 0.05997,-0.0937 0.08621,-0.13868 l 0.04123,0.0375 c 0,0 0.123686,-0.23613 0.337326,-0.63717 0.697141,-1.10568 1.600426,-2.54869 2.796061,-4.44896 l -0.322334,-0.20614 c 4.887484,-9.16778 15.310868,-28.60528 24.399939,-44.74447 0.783346,1.33806 1.963989,2.54869 3.601895,3.48571 8.871683,5.0449 16.641433,11.79518 23.230541,19.56493 -2.012714,7.9609 -4.021679,15.91805 -6.030645,23.8752 l -0.423532,-0.0787 c -0.42728,2.04269 -2.518703,12.73969 -2.998457,14.90982 -0.02998,0.15742 -0.01874,0.2961 -0.04123,0.44977 l -0.153671,0.75336 -2.683619,11.08304 h 0.02999 c -0.01124,0.0225 -0.04123,0.06 -0.04123,0.06 l -0.401043,2.29008 c 0,0 0.262365,0.29984 0.625927,0.36731 l 11.521569,2.17388 14.879838,2.79606 6.19556,1.16565 c 0.36356,0.0675 0.6859,0.015 0.71213,-0.11619 l 0.37856,-2.02021 c 0.007,-0.0262 -0.0113,-0.0487 -0.0225,-0.075 l 0.0337,0.0112 c 0.004,-0.004 1.42052,-3.8905 -1.95649,-5.35224 z"
     style="fill:#ff4400;stroke-width:3.74807048;fill-opacity:0.50196081" />
  <polygon
     transform="matrix(3.7480705,0,0,3.7480705,9.761,-13.088668)"
     id="polygon6526"
     points="51.917,7.871 44.24,21.487 38.623,14.392 32.482,20.364 30.805,22.297 57.676,22.297 "
     style="fill:#ff4400;fill-opacity:1" />
  <path
     id="path6594"
     d="m -262.33596,-10.510951 h 240 V 179.48905 h -240 z"
     style="clip-rule:evenodd;fill:none;fill-rule:evenodd;stroke-linejoin:round;stroke-miterlimit:1.41400003" />
  <path
     id="path6520-3"
     d="m 130.55332,96.426204 7.41111,91.860286 5.82075,-0.50599 -7.38862,-91.639149"
     style="fill:#ff4400;fill-opacity:1;stroke-width:3.74807048" />
</svg>
