<?xml version="1.0" encoding="UTF-8" standalone="no"?>
<svg
   xmlns:dc="http://purl.org/dc/elements/1.1/"
   xmlns:cc="http://creativecommons.org/ns#"
   xmlns:rdf="http://www.w3.org/1999/02/22-rdf-syntax-ns#"
   xmlns:svg="http://www.w3.org/2000/svg"
   xmlns="http://www.w3.org/2000/svg"
   id="svg5406"
   version="1.1"
   stroke-miterlimit="1.414"
   stroke-linejoin="round"
   clip-rule="evenodd"
   fill-rule="evenodd"
   viewBox="0 0 240 190">
  <metadata
     id="metadata5412">
    <rdf:RDF>
      <cc:Work
         rdf:about="">
        <dc:format>image/svg+xml</dc:format>
        <dc:type
           rdf:resource="http://purl.org/dc/dcmitype/StillImage" />
        <dc:title></dc:title>
      </cc:Work>
    </rdf:RDF>
  </metadata>
  <defs
     id="defs5410" />
  <path
     style="fill:none"
     id="path5385"
     d="M -247.88321,-1.7518248 H -7.8832117 V 188.24818 H -247.88321 Z" />
  <clipPath
     id="a">
    <path
       id="path5387"
       d="M0 0h240v190H0z" />
  </clipPath>
  <path
     id="path6594"
     d="m -262.33596,-10.510951 h 240 V 179.48905 h -240 z"
     style="clip-rule:evenodd;fill:none;fill-rule:evenodd;stroke-linejoin:round;stroke-miterlimit:1.41400003" />
  <path
     style="stroke-width:0.71915817;fill:#ff4400;fill-opacity:0.50196081"
     id="path960"
     d="M 237.9966,130.08621 199.94019,101.3882 V 89.862976 c 0,-1.579991 -0.74145,-3.067929 -2.00286,-4.019376 L 123.03125,29.35732 c -1.79502,-1.353456 -4.26748,-1.353456 -6.0625,0 L 42.062669,85.8436 c -1.261403,0.951447 -2.002855,2.439385 -2.002855,4.019376 V 101.3882 L 2.0034,130.08621 c -1.2614035,0.95145 -2.00285560532,2.43939 -2.00285560532,4.01938 v 50.8603 C 5.4439468e-4,187.74616 2.2543862,190 5.0346518,190 h 40.0592692 40.059269 69.69362 40.05927 40.05927 c 2.78027,0 5.03411,-2.25384 5.03411,-5.03411 v -50.8603 c 0,-1.57999 -0.74145,-3.06793 -2.00286,-4.01938 z m -112.55329,49.84486 h -10.88734 v -25.37622 h 10.88734 z m 10.06821,0 v -30.41033 c 0,-2.78026 -2.25384,-5.0341 -5.0341,-5.0341 h -20.95555 c -2.78027,0 -5.03411,2.25384 -5.03411,5.0341 v 30.41033 H 80.118364 50.128028 V 92.371399 L 120,39.680836 189.87197,92.371399 V 179.93107 H 159.88092 Z M 10.068759,136.61401 40.059814,113.99792 v 65.93315 H 10.068759 Z m 219.862481,43.31706 h -29.99105 v -65.93315 l 29.99105,22.61609 z" />
  <path
     style="stroke-width:0.71915817;fill:#ff4400;fill-opacity:1"
     id="path962"
     d="M 8.0651844,97.719779 120,13.311462 231.9341,97.720498 c 0.90829,0.684639 1.97193,1.015452 3.02765,1.015452 1.52534,0 3.03341,-0.691112 4.02297,-2.003575 1.67421,-2.219322 1.23192,-5.376427 -0.98812,-7.049908 L 123.03125,2.9872268 c -1.79502,-1.3534558 -4.26748,-1.3534558 -6.0625,0 L 2.0034,89.681748 c -2.22004138,1.6742 -2.66232367,4.830585 -0.9881234,7.049908 1.6734811,2.220041 4.8313048,2.662323 7.0499078,0.988123 z" />
</svg>
