<?xml version="1.0" encoding="UTF-8" standalone="no"?>
<svg
   xmlns:dc="http://purl.org/dc/elements/1.1/"
   xmlns:cc="http://creativecommons.org/ns#"
   xmlns:rdf="http://www.w3.org/1999/02/22-rdf-syntax-ns#"
   xmlns:svg="http://www.w3.org/2000/svg"
   xmlns="http://www.w3.org/2000/svg"
   id="svg1112"
   version="1.1"
   stroke-miterlimit="1.414"
   stroke-linejoin="round"
   clip-rule="evenodd"
   fill-rule="evenodd"
   viewBox="0 0 240 190">
  <metadata
     id="metadata1118">
    <rdf:RDF>
      <cc:Work
         rdf:about="">
        <dc:format>image/svg+xml</dc:format>
        <dc:type
           rdf:resource="http://purl.org/dc/dcmitype/StillImage" />
        <dc:title></dc:title>
      </cc:Work>
    </rdf:RDF>
  </metadata>
  <defs
     id="defs1116" />
  <path
     id="path1091"
     d="M0 0h240v190H0z"
     fill="none" />
  <clipPath
     id="a">
    <path
       id="path1093"
       d="M0 0h240v190H0z" />
  </clipPath>
  <path
     style="stroke-width:5.45804739;fill:#ff4400;fill-opacity:1"
     d="m 182.892,168.23781 c -0.11462,-0.36569 -4.55747,-2.33604 -9.24593,-5.37617 -0.38753,-0.25107 1.38634,-1.27173 0.97153,-1.51734 -5.11419,-3.04013 -7.02451,-2.27055 -11.04163,-4.68846 -12.04591,-7.28104 -25.25985,-16.97453 -25.25985,-16.97453 0,0 5.57267,-13.57417 4.93408,-16.9527 -0.62768,-3.37307 -12.73908,-15.83379 -14.13634,-17.6677 -1.39181,-1.81207 0.9879,-6.576945 0.36023,-12.165985 -0.50214,-4.535638 -2.60349,-8.017872 -2.8109,-9.900898 -0.46393,-4.208155 0.60039,-9.005779 2.40154,-11.363655 1.80662,-2.357877 9.95548,-7.379281 9.95548,-7.379281 0,0 4.45923,3.247539 7.00814,3.782427 2.5489,0.545805 5.7364,-0.125535 7.21008,-1.588291 1.47913,-1.457299 1.561,-5.103275 0.82962,-6.991759 -0.72592,-1.888485 -7.41203,-14.944134 -7.41203,-14.944134 0,0 2.14501,-7.111836 1.59375,-7.504816 -0.55672,-0.403895 -0.65496,-1.691994 -0.65496,-1.691994 0,0 0.44756,-3.847924 0.0273,-4.612051 -0.40936,-0.764126 -1.97036,-0.371147 -1.97036,-0.371147 0,0 -0.2347,-1.277183 -1.13527,-1.277183 -0.90058,0 -1.5883,1.031571 -1.5883,1.031571 0,0 -0.80779,0.944242 -1.30447,1.511879 -0.50214,0.567637 -1.24989,-0.27836 -2.35242,0.485767 -1.10798,0.764126 -2.19959,4.273651 -2.19959,4.273651 0,0 -8.83658,-2.827269 -11.95312,-4.568386 -3.11655,-1.735659 -6.40775,-8.197987 -6.40775,-8.197987 l -0.0655,-3.667808 c 0,0 1.93215,-1.997646 2.19959,-4.622967 0.27837,-2.62532 -1.02611,-3.171125 -1.02611,-3.171125 0,0 1.94307,-6.6588181 -0.96607,-9.0385268 -2.22143,-1.8229879 -4.96683,-3.25299631 -8.65101,-3.07288075 -3.67872,0.15828338 -4.05533,1.03702905 -6.69702,1.71928495 -2.64716,0.682256 -2.25418,5.28339 -2.25418,5.28339 l -0.56217,5.3161386 c 0,0 -1.369975,-5.7964468 -3.924341,-7.0299655 C 94.209643,4.0542856 93.107117,1.4344228 86.639331,2.5205743 80.171545,3.6012677 77.273322,12.547008 77.273322,12.547008 c 0,0 -4.10991,2.281463 -2.603489,7.291951 1.506421,5.010488 7.466609,4.579302 8.225277,5.960188 0.758669,1.386344 0.207406,6.003852 0.207406,6.003852 0,0 -10.108304,22.590859 -11.833047,26.44424 -1.724743,3.853382 -1.266267,9.245933 -0.03821,9.524293 3.105629,0.693172 9.011236,-3.313035 9.011236,-3.313035 0.09825,3.798801 5.206978,5.381635 5.654538,7.766802 0.453018,2.390625 -15.064212,52.102521 -18.671981,57.385911 -3.607769,5.29976 -5.157855,4.59568 -9.387842,12.42252 -3.618685,6.70794 -7.313783,22.22517 -10.075555,26.91909 -2.756314,4.69392 -11.04163,9.3933 -11.90946,12.42251 -0.867829,3.03468 0.174658,8.42177 2.598031,8.60734 2.423373,0.18012 5.228809,-1.08615 5.998394,-1.84482 0.742294,-0.72592 2.505244,-3.64597 4.830372,-6.62607 2.090432,-2.66898 4.797624,-5.38709 5.015946,-6.63152 0.180115,-1.02612 2.019477,-7.47207 6.162135,-13.94532 6.473245,-10.09738 16.248608,-21.42283 16.248608,-21.42283 0,0 0.758668,19.20141 0.966074,24.51755 0.207406,5.32159 4.874036,10.83422 5.081442,14.15817 0.207406,3.30758 -1.555543,4.44285 -2.690817,5.66 -1.135274,1.21714 -2.0686,2.76177 0.687714,2.89822 2.761772,0.13645 13.115688,0.0218 14.998714,0.005 1.883027,-0.0218 -0.229238,-15.33711 1.015197,-18.82481 1.244435,-3.50406 8.378105,-41.68856 8.378105,-41.68856 0,0 8.83658,15.45173 11.16171,19.50706 2.31967,4.05533 7.0518,7.79409 7.0518,7.79409 0,0 0.72592,7.43932 -0.0873,9.87907 -0.80234,2.43429 -3.15475,5.97656 -4.51927,8.1434 -1.35905,2.16139 -1.56646,12.59718 -1.56646,12.59718 l 1.38635,0.52397 2.07406,-4.14266 c 0,0 1.10252,7.85959 2.7836,8.30169 1.67562,0.43119 5.66,0.34386 8.43814,0.63314 2.77815,0.28927 4.10445,-1.89941 3.00193,-2.58712 -1.10798,-0.69317 -1.21169,-0.75321 -2.90368,-1.7957 -1.692,-1.04248 -1.51188,-2.76177 -1.51188,-2.76177 l 1.21714,-20.44039 30.13388,19.61077 2.71811,-1.12436 c 0,0 0.99882,2.09589 -0.10916,3.06742 -1.10798,0.96608 -1.64287,0.31657 -3.8643,1.38089 -1.34814,0.64951 -0.79687,1.97035 1.93215,2.6144 1.77387,0.42573 5.51263,0.11462 7.5976,0 2.08498,-0.11462 4.62297,-5.67091 4.62297,-5.67091 l 1.47913,-5.63816 c 0,0 2.73448,0.2729 3.4222,-1.24989 0.66588,-1.53917 3.70055,-5.26702 3.2912,-6.64245 z M 103.39008,33.707858 c -0.55672,0.431185 -6.626071,0.431185 -6.626071,0.431185 0,0 -0.622217,-4.481057 0,-4.966823 0.622218,-0.491224 1.451841,-0.966074 2.210509,-1.309931 0.758669,-0.338399 2.346962,-7.865047 2.346962,-7.865047 l 3.95708,8.405393 c -0.0164,-0.0055 -1.33722,4.874037 -1.88848,5.305223 z"
     id="path1787" />
</svg>
