<?xml version="1.0" encoding="UTF-8" standalone="no"?>
<svg
   xmlns:dc="http://purl.org/dc/elements/1.1/"
   xmlns:cc="http://creativecommons.org/ns#"
   xmlns:rdf="http://www.w3.org/1999/02/22-rdf-syntax-ns#"
   xmlns:svg="http://www.w3.org/2000/svg"
   xmlns="http://www.w3.org/2000/svg"
   height="51.017357"
   width="476.65591"
   id="svg25"
   version="1.1"
   viewBox="0 0 476.65592 51.017357">
  <metadata
     id="metadata29">
    <rdf:RDF>
      <cc:Work
         rdf:about="">
        <dc:format>image/svg+xml</dc:format>
        <dc:type
           rdf:resource="http://purl.org/dc/dcmitype/StillImage" />
        <dc:title>Logo</dc:title>
      </cc:Work>
    </rdf:RDF>
  </metadata>
  <title
     id="title2">Logo</title>
  <defs
     id="defs23">
    <path
       d="M 22.735,23.171 C 23.018,23.494 22.788,24 22.359,24 h -5.907 c -0.285,0 -0.556,-0.121 -0.745,-0.333 L 6.293,13.141 v 10.36 c 0,0.276 -0.224,0.5 -0.5,0.5 H 0.5 c -0.276,0 -0.5,-0.224 -0.5,-0.5 v -23 c 0,-0.276 0.224,-0.5 0.5,-0.5 h 5.293 c 0.276,0 0.5,0.224 0.5,0.5 v 9.815 l 9.141,-9.99 c 0.19,-0.207 0.457,-0.325 0.738,-0.325 h 5.762 c 0.437,0 0.664,0.521 0.366,0.841 l -9.851,10.563 10.287,11.767 z"
       id="b" />
    <path
       d="m 45.991,24 c -0.199,0 -0.38,-0.118 -0.459,-0.301 L 43.508,19.03 h -10.67 l -2.024,4.669 C 30.735,23.882 30.555,24 30.355,24 h -5.212 c -0.366,0 -0.608,-0.381 -0.453,-0.712 l 10.782,-23 C 35.554,0.112 35.731,0 35.925,0 h 4.358 c 0.194,0 0.37,0.112 0.453,0.287 l 10.815,23 C 51.707,23.619 51.465,24 51.099,24 Z M 34.856,14.332 h 6.635 l -3.317,-7.694 -3.317,7.694 z"
       id="c" />
    <path
       d="m 55.525,24 c -0.276,0 -0.5,-0.224 -0.5,-0.5 v -23 c 0,-0.276 0.224,-0.5 0.5,-0.5 h 5.293 c 0.276,0 0.5,0.224 0.5,0.5 v 18.428 h 9.759 c 0.276,0 0.5,0.224 0.5,0.5 V 23.5 c 0,0.276 -0.224,0.5 -0.5,0.5 z"
       id="d" />
    <path
       d="m 75.279,0.5 c 0,-0.276 0.224,-0.5 0.5,-0.5 h 9.315 c 2.667,0 4.959,0.477 6.874,1.43 1.938,0.953 3.42,2.338 4.446,4.153 1.026,1.793 1.539,3.926 1.539,6.4 0,2.496 -0.513,4.652 -1.539,6.468 -1.003,1.793 -2.474,3.166 -4.412,4.119 C 90.087,23.523 87.784,24 85.094,24 h -9.315 c -0.276,0 -0.5,-0.224 -0.5,-0.5 z m 9.37,18.462 c 2.371,0 4.138,-0.579 5.301,-1.736 1.163,-1.157 1.744,-2.905 1.744,-5.242 C 91.694,9.646 91.113,7.91 89.95,6.775 88.787,5.618 87.02,5.039 84.649,5.039 h -3.078 v 13.923 z"
       id="e" />
    <path
       d="m 102.913,24 c -0.276,0 -0.5,-0.224 -0.5,-0.5 v -23 c 0,-0.276 0.224,-0.5 0.5,-0.5 h 5.293 c 0.276,0 0.5,0.224 0.5,0.5 v 23 c 0,0.276 -0.224,0.5 -0.5,0.5 z"
       id="f" />
  </defs>
  <g
     id="text849"
     style="font-style:normal;font-variant:normal;font-weight:normal;font-stretch:normal;font-size:83.99993134px;line-height:1.25;font-family:Ubuntu;-inkscape-font-specification:Ubuntu;letter-spacing:0px;word-spacing:0px;fill:#ff4400;fill-opacity:1;stroke:none;stroke-width:2.09999824"
     aria-label="HOSTAL">
    <path
       id="path825"
       style="font-style:normal;font-variant:normal;font-weight:500;font-stretch:normal;font-size:67.19994354px;font-family:Ubuntu;-inkscape-font-specification:'Ubuntu Medium';letter-spacing:-1.67999864px;fill:#ff4400;fill-opacity:1;stroke-width:2.09999824"
       d="m 28.694376,3.4397966 h 8.467193 V 50.009357 H 28.694376 V 29.378975 H 8.467193 V 50.009357 H 8.0108643e-8 V 3.4397966 H 8.467193 V 22.054181 h 20.227183 z" />
    <path
       id="path827"
       style="font-style:normal;font-variant:normal;font-weight:500;font-stretch:normal;font-size:67.19994354px;font-family:Ubuntu;-inkscape-font-specification:'Ubuntu Medium';letter-spacing:-1.67999864px;fill:#ff4400;fill-opacity:1;stroke-width:2.09999824"
       d="m 53.541555,26.690977 q 0,3.830397 0.940799,6.988794 0.940799,3.091198 2.687998,5.308796 1.814398,2.150398 4.367996,3.359997 2.553598,1.209599 5.779195,1.209599 3.158398,0 5.711996,-1.209599 2.553598,-1.209599 4.300796,-3.359997 1.814399,-2.217598 2.755198,-5.308796 0.940799,-3.158397 0.940799,-6.988794 0,-3.830397 -0.940799,-6.921594 -0.940799,-3.158397 -2.755198,-5.308796 -1.747198,-2.217598 -4.300796,-3.427197 -2.553598,-1.2095988 -5.711996,-1.2095988 -3.225597,0 -5.779195,1.2095988 -2.553598,1.209599 -4.367996,3.427197 -1.747199,2.217598 -2.687998,5.308796 -0.940799,3.091197 -0.940799,6.921594 z m 36.35517,0 q 0,5.980795 -1.814399,10.550391 -1.747199,4.569596 -4.838396,7.660794 -3.023997,3.023997 -7.123194,4.569596 -4.099196,1.545599 -8.735993,1.545599 -4.636796,0 -8.803192,-1.545599 -4.099197,-1.545599 -7.190394,-4.569596 -3.023998,-3.091198 -4.838396,-7.660794 -1.814399,-4.569596 -1.814399,-10.550391 0,-5.980795 1.814399,-10.483191 1.814398,-4.569596 4.905596,-7.6607937 3.158397,-3.0911974 7.257594,-4.6367961 4.099196,-1.5455987 8.668792,-1.5455987 4.569597,0 8.668793,1.5455987 4.099197,1.5455987 7.123194,4.6367961 3.091198,3.0911977 4.905596,7.6607937 1.814399,4.502396 1.814399,10.483191 z" />
    <path
       id="path829"
       style="font-style:normal;font-variant:normal;font-weight:500;font-stretch:normal;font-size:67.19994354px;font-family:Ubuntu;-inkscape-font-specification:'Ubuntu Medium';letter-spacing:-1.67999864px;fill:#ff4400;fill-opacity:1;stroke-width:2.09999824"
       d="m 108.07326,43.692563 q 4.5696,0 6.65279,-1.545599 2.0832,-1.545599 2.0832,-4.367996 0,-1.679999 -0.7392,-2.889598 -0.672,-1.209599 -2.016,-2.150398 -1.27679,-1.007999 -3.15839,-1.814399 -1.8816,-0.873599 -4.3008,-1.679998 -2.4192,-0.873599 -4.704,-1.881599 -2.217594,-1.075199 -3.964792,-2.620797 -1.679999,-1.545599 -2.755198,-3.695997 -1.007999,-2.150398 -1.007999,-5.174396 0,-6.3167946 4.367996,-9.8783916 4.367993,-3.6287969 11.894393,-3.6287969 4.36799,0 7.72799,1.0079991 3.4272,0.9407992 5.376,2.0831983 l -2.6208,6.8543941 q -2.2848,-1.276799 -5.04,-1.948798 -2.688,-0.6719997 -5.57759,-0.6719997 -3.4272,0 -5.376,1.4111987 -1.8816,1.411199 -1.8816,3.964797 0,1.545599 0.6048,2.687998 0.672,1.075199 1.8144,1.948798 1.2096,0.873599 2.7552,1.612799 1.6128,0.739199 3.4944,1.411198 3.29279,1.209599 5.84639,2.486398 2.6208,1.209599 4.368,2.956798 1.8144,1.679998 2.7552,4.031996 0.94079,2.284798 0.94079,5.577596 0,6.316794 -4.50239,9.811191 -4.4352,3.427198 -13.03679,3.427198 -2.8896,0 -5.3088,-0.4032 -2.35199,-0.336 -4.233593,-0.873599 -1.814398,-0.5376 -3.158397,-1.075199 -1.343999,-0.6048 -2.150398,-1.0752 l 2.486398,-6.921594 q 1.814398,1.007999 4.9056,2.015999 3.09119,1.007999 7.45919,1.007999 z" />
    <path
       id="path831"
       style="font-style:normal;font-variant:normal;font-weight:500;font-stretch:normal;font-size:67.19994354px;font-family:Ubuntu;-inkscape-font-specification:'Ubuntu Medium';letter-spacing:-1.67999864px;fill:#ff4400;fill-opacity:1;stroke-width:2.09999824"
       d="M 163.78622,3.4397966 V 10.76459 h -14.31359 v 39.244767 h -8.53439 V 10.76459 H 126.62465 V 3.4397966 Z" />
    <path
       id="path833"
       style="font-style:normal;font-variant:normal;font-weight:500;font-stretch:normal;font-size:67.19994354px;font-family:Ubuntu;-inkscape-font-specification:'Ubuntu Medium';letter-spacing:-1.67999864px;fill:#ff4400;fill-opacity:1;stroke-width:2.09999824"
       d="m 195.60434,50.009357 q -0.9408,-2.755197 -1.9488,-5.443195 -1.008,-2.687998 -1.9488,-5.510395 h -19.62238 q -0.9408,2.822397 -1.9488,5.577595 -0.9408,2.687998 -1.8816,5.375995 h -8.80319 q 2.6208,-7.459193 4.9728,-13.775988 2.352,-6.316795 4.56959,-11.96159 2.2848,-5.644795 4.5024,-10.751991 2.2176,-5.1071956 4.5696,-10.0799914 h 7.99679 q 2.352,4.9727958 4.5696,10.0799914 2.21759,5.107196 4.43519,10.751991 2.2848,5.644795 4.6368,11.96159 2.4192,6.316795 5.03999,13.775988 z M 181.89555,12.444589 q -1.5456,3.561597 -3.56159,8.668793 -1.9488,5.107195 -4.0992,11.08799 h 15.32159 q -2.1504,-5.980795 -4.1664,-11.15519 -2.016,-5.174396 -3.4944,-8.601593 z" />
    <path
       id="path835"
       style="font-style:normal;font-variant:normal;font-weight:500;font-stretch:normal;font-size:67.19994354px;font-family:Ubuntu;-inkscape-font-specification:'Ubuntu Medium';letter-spacing:-1.67999864px;fill:#ff4400;fill-opacity:1;stroke-width:2.09999824"
       d="m 238.3834,42.684564 v 7.324793 H 208.94983 V 3.4397966 h 8.46719 V 42.684564 Z" />
  </g>
  <rect
     ry="8.1103487"
     y="0"
     x="245.80937"
     height="50.39996"
     width="230.84653"
     id="rect855"
     style="fill:#803300;fill-opacity:1;stroke-width:1.49518764" />
  <g
     id="text853"
     style="font-style:normal;font-weight:normal;font-size:71.03830719px;line-height:1.25;font-family:sans-serif;letter-spacing:0px;word-spacing:0px;fill:#ffffff;fill-opacity:1;stroke:none;stroke-width:1.77595758"
     aria-label="Cabriales">
    <path
       id="path838"
       style="font-style:normal;font-variant:normal;font-weight:normal;font-stretch:normal;font-size:52.09476089px;font-family:Ubuntu;-inkscape-font-specification:Ubuntu;fill:#ffffff;stroke-width:1.77595758"
       d="m 271.37718,44.641033 q -3.80292,0 -6.92861,-1.250274 -3.12568,-1.250275 -5.36576,-3.646634 -2.24007,-2.396359 -3.49035,-5.886708 -1.19818,-3.542443 -1.19818,-8.074688 0,-4.532244 1.35447,-8.022593 1.40656,-3.542443 3.75082,-5.938802 2.34426,-2.3963594 5.46995,-3.6466337 3.12569,-1.2502743 6.66813,-1.2502743 2.24007,0 4.0113,0.3125686 1.82331,0.3125686 3.12568,0.7293267 1.35447,0.416758 2.18798,0.8335161 0.83352,0.4167581 1.14609,0.6251372 l -1.45866,4.1675804 q -0.46885,-0.312568 -1.35446,-0.677231 -0.88561,-0.364664 -2.0317,-0.729327 -1.09399,-0.364663 -2.44845,-0.573042 -1.30237,-0.260474 -2.65683,-0.260474 -2.86521,0 -5.15738,0.9898 -2.29217,0.989801 -3.90711,2.865212 -1.61494,1.875411 -2.50055,4.584339 -0.83352,2.656833 -0.83352,5.990897 0,3.229876 0.72933,5.886708 0.78142,2.656833 2.29217,4.584339 1.51075,1.875412 3.75082,2.917307 2.29217,1.041895 5.31367,1.041895 3.49035,0 5.78252,-0.729326 2.29217,-0.729327 3.43825,-1.302369 l 1.30237,4.16758 q -0.36466,0.260474 -1.30237,0.677232 -0.9377,0.364664 -2.34426,0.729327 -1.40656,0.364663 -3.28197,0.625137 -1.87541,0.260474 -4.06339,0.260474 z" />
    <path
       id="path840"
       style="font-style:normal;font-variant:normal;font-weight:normal;font-stretch:normal;font-size:52.09476089px;font-family:Ubuntu;-inkscape-font-specification:Ubuntu;fill:#ffffff;stroke-width:1.77595758"
       d="m 296.96303,40.369263 q 1.71913,0 3.02149,-0.05209 1.35447,-0.10419 2.24008,-0.312569 v -8.074688 q -0.52095,-0.260474 -1.71913,-0.416758 -1.14608,-0.208379 -2.81311,-0.208379 -1.09399,0 -2.34427,0.156284 -1.19818,0.156285 -2.24007,0.677232 -0.9898,0.468853 -1.66704,1.354464 -0.67723,0.833516 -0.67723,2.240075 0,2.604738 1.66703,3.646633 1.66704,0.989801 4.53225,0.989801 z m -0.41676,-24.276159 q 2.91731,0 4.89691,0.781421 2.03169,0.729327 3.22987,2.135886 1.25028,1.354463 1.77123,3.28197 0.52094,1.875411 0.52094,4.16758 v 16.930798 q -0.62513,0.104189 -1.77122,0.312568 -1.09399,0.156285 -2.50055,0.312569 -1.40656,0.156284 -3.07359,0.260474 -1.61494,0.156284 -3.22987,0.156284 -2.29217,0 -4.21968,-0.468853 -1.92751,-0.468853 -3.33406,-1.458653 -1.40656,-1.041895 -2.18798,-2.708928 -0.78143,-1.667032 -0.78143,-4.011296 0,-2.240075 0.88562,-3.855013 0.9377,-1.614937 2.50054,-2.604738 1.56285,-0.9898 3.64664,-1.458653 2.08379,-0.468853 4.37596,-0.468853 0.72932,0 1.51075,0.10419 0.78142,0.05209 1.45865,0.208379 0.72933,0.104189 1.25027,0.208379 0.52095,0.104189 0.72933,0.156284 v -1.354464 q 0,-1.198179 -0.26047,-2.344264 -0.26048,-1.19818 -0.93771,-2.08379 -0.67723,-0.937706 -1.87541,-1.458654 -1.14609,-0.573042 -3.0215,-0.573042 -2.39636,0 -4.21967,0.364663 -1.77122,0.312569 -2.65684,0.677232 l -0.57304,-4.011297 q 0.93771,-0.416758 3.12569,-0.781421 2.18798,-0.416758 4.74062,-0.416758 z" />
    <path
       id="path842"
       style="font-style:normal;font-variant:normal;font-weight:normal;font-stretch:normal;font-size:52.09476089px;font-family:Ubuntu;-inkscape-font-specification:Ubuntu;fill:#ffffff;stroke-width:1.77595758"
       d="m 319.80577,17.968515 q 0.88561,-0.573042 2.65683,-1.198179 1.82332,-0.625137 4.16758,-0.625137 2.91731,0 5.15738,1.041895 2.29217,1.041895 3.85501,2.917307 1.56285,1.875411 2.34427,4.480149 0.83351,2.604738 0.83351,5.730424 0,3.28197 -0.9898,5.938802 -0.9377,2.604738 -2.70892,4.428055 -1.77123,1.823317 -4.27177,2.813117 -2.50055,0.989801 -5.62624,0.989801 -3.38616,0 -5.9909,-0.468853 -2.60473,-0.468853 -4.27177,-0.937706 V 4.2675932 l 4.84482,-0.8335161 z m 0,21.671421 q 0.72932,0.208379 2.03169,0.416758 1.35447,0.156284 3.33407,0.156284 3.9071,0 6.25137,-2.552643 2.34426,-2.604738 2.34426,-7.345361 0,-2.083791 -0.41676,-3.907107 -0.41675,-1.823317 -1.35446,-3.125686 -0.9377,-1.354464 -2.44845,-2.08379 -1.45866,-0.781422 -3.54245,-0.781422 -1.9796,0 -3.64663,0.677232 -1.66703,0.677232 -2.55264,1.406559 z" />
    <path
       id="path844"
       style="font-style:normal;font-variant:normal;font-weight:normal;font-stretch:normal;font-size:52.09476089px;font-family:Ubuntu;-inkscape-font-specification:Ubuntu;fill:#ffffff;stroke-width:1.77595758"
       d="m 355.69092,16.197293 q 0.62513,0 1.40655,0.10419 0.83352,0.05209 1.61494,0.208379 0.78142,0.10419 1.40656,0.260474 0.67723,0.104189 0.9898,0.208379 l -0.83352,4.219676 q -0.57304,-0.20838 -1.9275,-0.468853 -1.30237,-0.312569 -3.38616,-0.312569 -1.35446,0 -2.70893,0.312569 -1.30237,0.260473 -1.71913,0.364663 v 22.765411 h -4.84481 V 17.916421 q 1.71913,-0.625138 4.27177,-1.146085 2.55265,-0.573043 5.73043,-0.573043 z" />
    <path
       id="path846"
       style="font-style:normal;font-variant:normal;font-weight:normal;font-stretch:normal;font-size:52.09476089px;font-family:Ubuntu;-inkscape-font-specification:Ubuntu;fill:#ffffff;stroke-width:1.77595758"
       d="m 370.67955,43.859612 h -4.84481 V 16.770336 h 4.84481 z M 368.2311,11.873428 q -1.30237,0 -2.24007,-0.833516 -0.88562,-0.885611 -0.88562,-2.3442641 0,-1.4586533 0.88562,-2.2921695 0.9377,-0.8856109 2.24007,-0.8856109 1.30237,0 2.18798,0.8856109 0.93771,0.8335162 0.93771,2.2921695 0,1.4586531 -0.93771,2.3442641 -0.88561,0.833516 -2.18798,0.833516 z" />
    <path
       id="path848"
       style="font-style:normal;font-variant:normal;font-weight:normal;font-stretch:normal;font-size:52.09476089px;font-family:Ubuntu;-inkscape-font-specification:Ubuntu;fill:#ffffff;stroke-width:1.77595758"
       d="m 388.23061,40.369263 q 1.71912,0 3.02149,-0.05209 1.35447,-0.10419 2.24008,-0.312569 v -8.074688 q -0.52095,-0.260474 -1.71913,-0.416758 -1.14608,-0.208379 -2.81312,-0.208379 -1.09399,0 -2.34426,0.156284 -1.19818,0.156285 -2.24008,0.677232 -0.9898,0.468853 -1.66703,1.354464 -0.67723,0.833516 -0.67723,2.240075 0,2.604738 1.66703,3.646633 1.66704,0.989801 4.53225,0.989801 z m -0.41676,-24.276159 q 2.91731,0 4.89691,0.781421 2.03169,0.729327 3.22987,2.135886 1.25028,1.354463 1.77122,3.28197 0.52095,1.875411 0.52095,4.16758 v 16.930798 q -0.62514,0.104189 -1.77122,0.312568 -1.09399,0.156285 -2.50055,0.312569 -1.40656,0.156284 -3.07359,0.260474 -1.61494,0.156284 -3.22988,0.156284 -2.29216,0 -4.21967,-0.468853 -1.92751,-0.468853 -3.33407,-1.458653 -1.40655,-1.041895 -2.18798,-2.708928 -0.78142,-1.667032 -0.78142,-4.011296 0,-2.240075 0.88561,-3.855013 0.93771,-1.614937 2.50055,-2.604738 1.56285,-0.9898 3.64664,-1.458653 2.08379,-0.468853 4.37596,-0.468853 0.72932,0 1.51074,0.10419 0.78142,0.05209 1.45866,0.208379 0.72932,0.104189 1.25027,0.208379 0.52095,0.104189 0.72933,0.156284 v -1.354464 q 0,-1.198179 -0.26048,-2.344264 -0.26047,-1.19818 -0.9377,-2.08379 -0.67723,-0.937706 -1.87541,-1.458654 -1.14609,-0.573042 -3.0215,-0.573042 -2.39636,0 -4.21967,0.364663 -1.77123,0.312569 -2.65684,0.677232 l -0.57304,-4.011297 q 0.93771,-0.416758 3.12569,-0.781421 2.18798,-0.416758 4.74062,-0.416758 z" />
    <path
       id="path850"
       style="font-style:normal;font-variant:normal;font-weight:normal;font-stretch:normal;font-size:52.09476089px;font-family:Ubuntu;-inkscape-font-specification:Ubuntu;fill:#ffffff;stroke-width:1.77595758"
       d="m 414.35532,44.380559 q -4.48015,-0.104189 -6.35556,-1.927506 -1.87541,-1.823317 -1.87541,-5.678329 V 4.2675932 l 4.84481,-0.8335161 V 35.993303 q 0,1.198179 0.20838,1.979601 0.20838,0.781421 0.67723,1.250274 0.46886,0.468853 1.25028,0.729326 0.78142,0.208379 1.9275,0.364664 z" />
    <path
       id="path852"
       style="font-style:normal;font-variant:normal;font-weight:normal;font-stretch:normal;font-size:52.09476089px;font-family:Ubuntu;-inkscape-font-specification:Ubuntu;fill:#ffffff;stroke-width:1.77595758"
       d="m 418.96245,30.367068 q 0,-3.594538 1.0419,-6.251371 1.04189,-2.708927 2.76102,-4.480149 1.71913,-1.771222 3.9592,-2.656833 2.24008,-0.885611 4.58434,-0.885611 5.46995,0 8.38726,3.438254 2.9173,3.38616 2.9173,10.366858 0,0.312568 0,0.833516 0,0.468853 -0.0521,0.885611 h -18.54574 q 0.31257,4.219675 2.44846,6.407655 2.13588,2.18798 6.66813,2.18798 2.55264,0 4.27177,-0.416758 1.77122,-0.468853 2.65683,-0.885611 l 0.67723,4.063392 q -0.88561,0.468852 -3.12568,0.9898 -2.18798,0.520948 -5.0011,0.520948 -3.54245,0 -6.14718,-1.041896 -2.55265,-1.09399 -4.21968,-2.969401 -1.66703,-1.875411 -2.50055,-4.428055 -0.78142,-2.604738 -0.78142,-5.678329 z m 18.59783,-2.656832 q 0.0521,-3.28197 -1.66703,-5.365761 -1.66703,-2.135885 -4.63644,-2.135885 -1.66703,0 -2.9694,0.677232 -1.25027,0.625137 -2.13588,1.667032 -0.88561,1.041896 -1.40656,2.396359 -0.46885,1.354464 -0.62514,2.761023 z" />
    <path
       id="path854"
       style="font-style:normal;font-variant:normal;font-weight:normal;font-stretch:normal;font-size:52.09476089px;font-family:Ubuntu;-inkscape-font-specification:Ubuntu;fill:#ffffff;stroke-width:1.77595758"
       d="m 455.87647,40.369263 q 2.9694,0 4.37596,-0.781422 1.45866,-0.781421 1.45866,-2.500548 0,-1.771222 -1.40656,-2.813117 -1.40656,-1.041896 -4.63644,-2.344265 -1.56284,-0.625137 -3.02149,-1.250274 -1.40656,-0.677232 -2.44846,-1.562843 -1.04189,-0.885611 -1.66703,-2.135885 -0.62514,-1.250274 -0.62514,-3.073591 0,-3.594538 2.65684,-5.678329 2.65683,-2.135885 7.24117,-2.135885 1.14608,0 2.29217,0.156284 1.14608,0.10419 2.13588,0.312569 0.9898,0.156284 1.71913,0.364663 0.78142,0.208379 1.19818,0.364663 l -0.88561,4.167581 q -0.78142,-0.416758 -2.44845,-0.833516 -1.66704,-0.468853 -4.0113,-0.468853 -2.0317,0 -3.54244,0.833516 -1.51075,0.781422 -1.51075,2.500549 0,0.885611 0.31257,1.562843 0.36466,0.677232 1.04189,1.250274 0.72933,0.520948 1.77122,0.989801 1.0419,0.468852 2.50055,0.9898 1.92751,0.729327 3.43826,1.458653 1.51074,0.677232 2.55264,1.614938 1.09399,0.937706 1.66703,2.292169 0.57304,1.302369 0.57304,3.229876 0,3.750822 -2.81311,5.678328 -2.76103,1.927507 -7.91841,1.927507 -3.59454,0 -5.62623,-0.625137 -2.0317,-0.573043 -2.76102,-0.885611 l 0.88561,-4.167581 q 0.83351,0.312568 2.65683,0.937705 1.82332,0.625138 4.84481,0.625138 z" />
  </g>
</svg>
